<svg 
 xmlns="http://www.w3.org/2000/svg"
 xmlns:xlink="http://www.w3.org/1999/xlink"
 width="23px" height="23px">
<path fill-rule="evenodd"  fill="rgb(99, 117, 126)"
 d="M13.024,18.969 C11.242,18.969 9.586,18.444 8.188,17.552 L3.313,22.427 L0.926,20.039 L5.732,15.233 C4.659,13.751 4.020,11.934 4.020,9.965 C4.020,4.992 8.051,0.961 13.024,0.961 C17.996,0.961 22.027,4.992 22.027,9.965 C22.027,14.938 17.996,18.969 13.024,18.969 ZM12.989,4.033 C9.719,4.033 7.068,6.684 7.068,9.954 C7.068,13.224 9.719,15.875 12.989,15.875 C16.259,15.875 18.910,13.224 18.910,9.954 C18.910,6.684 16.259,4.033 12.989,4.033 Z"/>
</svg>