<svg 
 xmlns="http://www.w3.org/2000/svg"
 xmlns:xlink="http://www.w3.org/1999/xlink"
 width="26px" height="26px">
<path fill-rule="evenodd"  fill="rgb(255, 255, 255)"
 d="M25.445,4.957 C25.835,5.212 26.072,5.668 26.006,6.159 L24.502,15.477 C24.410,16.158 23.781,16.637 23.097,16.545 L22.997,16.531 L7.747,16.531 L8.131,19.062 L21.656,19.062 C22.312,19.062 22.844,19.594 22.844,20.250 L22.844,20.375 C22.844,21.031 22.312,21.562 21.656,21.562 L7.184,21.562 L7.135,21.570 C6.454,21.680 5.813,21.218 5.703,20.539 L3.144,3.682 C3.086,3.324 3.194,2.983 3.402,2.719 L1.315,2.719 C0.589,2.719 -0.000,2.130 -0.000,1.404 L-0.000,1.315 C-0.000,0.588 0.589,-0.000 1.315,-0.000 L4.435,-0.000 C5.161,-0.000 5.750,0.588 5.750,1.315 L5.750,1.404 C5.750,1.835 5.538,2.210 5.217,2.447 C5.285,2.495 5.334,2.564 5.392,2.625 L24.715,2.625 C25.408,2.625 25.969,3.186 25.969,3.878 L25.969,3.965 C25.969,4.379 25.755,4.729 25.445,4.957 ZM21.994,13.781 L22.559,10.281 L17.500,10.281 L17.500,13.781 L21.994,13.781 ZM16.500,13.781 L16.500,10.281 L12.219,10.281 L12.219,13.781 L16.500,13.781 ZM7.329,13.781 L11.219,13.781 L11.219,10.281 L6.798,10.281 L7.329,13.781 ZM6.029,5.219 L6.644,9.268 C6.674,9.262 6.701,9.250 6.732,9.250 L11.219,9.250 L11.219,5.219 L6.029,5.219 ZM12.219,5.219 L12.219,9.250 L16.500,9.250 L16.500,5.219 L12.219,5.219 ZM17.500,5.219 L17.500,9.250 L22.725,9.250 L23.283,5.793 C23.313,5.571 23.414,5.385 23.540,5.219 L17.500,5.219 ZM9.062,23.187 C10.132,23.187 11.000,23.817 11.000,24.594 C11.000,25.370 10.132,26.000 9.062,26.000 C7.992,26.000 7.125,25.370 7.125,24.594 C7.125,23.817 7.992,23.187 9.062,23.187 ZM21.031,23.187 C22.101,23.187 22.969,23.817 22.969,24.594 C22.969,25.370 22.101,26.000 21.031,26.000 C19.961,26.000 19.094,25.370 19.094,24.594 C19.094,23.817 19.961,23.187 21.031,23.187 Z"/>
</svg>