<svg xmlns="http://www.w3.org/2000/svg" width="66" height="77" viewBox="0 0 66 77">
  <metadata><?xpacket begin="﻿" id="W5M0MpCehiHzreSzNTczkc9d"?>
<x:xmpmeta xmlns:x="adobe:ns:meta/" x:xmptk="Adobe XMP Core 5.6-c138 79.159824, 2016/09/14-01:09:01        ">
   <rdf:RDF xmlns:rdf="http://www.w3.org/1999/02/22-rdf-syntax-ns#">
      <rdf:Description rdf:about=""/>
   </rdf:RDF>
</x:xmpmeta>
                                                                                                    
                                                                                                    
                                                                                                    
                                                                                                    
                                                                                                    
                                                                                                    
                                                                                                    
                                                                                                    
                                                                                                    
                                                                                                    
                                                                                                    
                                                                                                    
                                                                                                    
                                                                                                    
                                                                                                    
                                                                                                    
                                                                                                    
                                                                                                    
                                                                                                    
                                                                                                    
                           
<?xpacket end="w"?></metadata>
<defs>
    <style>
      .cls-1 {
        fill: #515050;
        fill-rule: evenodd;
      }
    </style>
  </defs>
  <path id="Scroll_icon_link" class="cls-1" d="M982.283,913.537a10.714,10.714,0,0,1-9.605-5.963,24.67,24.67,0,1,1,3.633-13.648A10.715,10.715,0,1,1,982.283,913.537ZM929.722,894.66a21.941,21.941,0,0,0,41.891,9.132c-0.029-.32-0.046-0.642-0.046-0.969a10.783,10.783,0,0,1,.206-2.094l-17.736-3.858h-0.418a2.716,2.716,0,1,1-3.02-4.463c-0.306-.147-0.475-0.224-0.1-0.225l0.131,0.211,0.041-.019-0.112-.193a2.63,2.63,0,0,1,.317.029l0.273-.473,0.162,0.093,7.63-17.871A21.946,21.946,0,0,0,929.722,894.66Zm31.964-19.516-7.864,17.839a2.789,2.789,0,0,1,.364.486h0.03v0.052a2.909,2.909,0,0,1,.135.288H954.9V894l17.742,4.153a10.674,10.674,0,0,1,.866-1.468c0.062-.666.1-1.339,0.1-2.021A21.932,21.932,0,0,0,961.686,875.144Zm20.768,19.686a8.163,8.163,0,1,0,8.165,8.163A8.164,8.164,0,0,0,982.454,894.83Zm-0.171,9.524a1.191,1.191,0,1,1,1.191-1.191A1.19,1.19,0,0,1,982.283,904.354Zm-0.5-1.01h1v16.343h-1V903.344Zm0,15.656h5.438v1h-5.438v-1Zm-21.619,27.393a2.134,2.134,0,0,1,0-2.868l4.615-4.955a1.8,1.8,0,0,1,2.672,0,2.136,2.136,0,0,1,0,2.869l-4.615,4.954A1.8,1.8,0,0,1,960.162,946.393Zm0,0-4.615-4.954a2.136,2.136,0,0,1,0-2.869,1.8,1.8,0,0,1,2.672,0l4.615,4.955a2.134,2.134,0,0,1,0,2.868A1.8,1.8,0,0,1,960.162,946.393ZM961.5,931a1.5,1.5,0,0,1,1.5,1.5v4a1.5,1.5,0,0,1-3,0v-4A1.5,1.5,0,0,1,961.5,931Zm0-10a1.5,1.5,0,0,1,1.5,1.5v5a1.5,1.5,0,0,1-3,0v-5A1.5,1.5,0,0,1,961.5,921Z" transform="translate(-927 -870)"/>
</svg>
